<svg id="Livello_1" data-name="Livello 1" xmlns="http://www.w3.org/2000/svg" viewBox="0 0 595.28 595.28"><defs><style>.cls-1{fill:#0f8b39;}.cls-2{fill:#138e48;}.cls-3{fill:#158e45;}.cls-4{fill:#d42f32;}.cls-5{fill:#d3212e;}.cls-6{fill:#fdfdfd;}</style></defs><path class="cls-1" d="M189.51,19.28c1.48-.22,3.08-.52,3.23,1.7.11,1.69,0,3.39,0,5.09q0,272-.15,544c0,1.64,3.12,6.78-3.14,5.23-2.48-3.15-1.77-6.88-1.77-10.42q0-114.54,0-229.07,0-152.7,0-305.42C187.72,26.6,187,22.66,189.51,19.28Z"/><path class="cls-2" d="M189.51,19.28q0,278,0,556a2.59,2.59,0,0,1-2.6-1.07c-1.84-3.38-1.17-7.06-1.17-10.62q0-265.92-.07-531.84c0-3.32.85-6.8-1-10l-.23-.26C185.81,20.1,187.68,19.75,189.51,19.28Z"/><path class="cls-3" d="M184.63,21.77c1.57,0,2.25.92,2.28,2.4,0,1.91,0,3.82,0,5.72V566.56c0,2.54,0,5.09-.06,7.63l-1.22-.38c-1.39-2.07-1.26-4.42-1.26-6.76q0-270.73,0-541.47C184.43,24.31,184.56,23,184.63,21.77Z"/><path class="cls-4" d="M405,18.86c-2.3,1.74-1.46,4.27-1.46,6.49q0,271.65,0,543.3c0,2.41-1.54,5.83,2.67,6.71-1.4,1.14-3,2.21-3.59-.54a23.77,23.77,0,0,1-.09-5.07q0-272.76.13-545.51C402.66,22.57,400.31,18.88,405,18.86Z"/><path class="cls-5" d="M405,18.86C470.88,44.3,521.29,88.24,556.16,149.57a299.46,299.46,0,0,1-48.92,360,296,296,0,0,1-98.59,65.23,15,15,0,0,1-2.44.57c-1.64.77-2.91.56-3.25-1.47a30.72,30.72,0,0,1-.12-5.08q0-271.6.1-543.22C402.94,23.38,400.91,20,405,18.86Z"/><path class="cls-6" d="M184.28,18.37a100.56,100.56,0,0,0-3.14,25V551.93a100.58,100.58,0,0,0,3.14,25,334.91,334.91,0,0,0,218.79,0,100.58,100.58,0,0,0,3.14-25V43.34a100.56,100.56,0,0,0-3.14-25,334.91,334.91,0,0,0-218.79,0Z"/><path class="cls-2" d="M185.12,576.56c-33.61-13.19-63.29-32.78-89.53-57.64-54-51.17-85.4-114.22-93.72-188.66C-12.1,205.39,53.28,84.13,164.3,27.84c6.37-3.23,12.62-6.77,19.56-8.71l.85,1c1.27,2.62.94,5.44.94,8.2q0,271.29,0,542.57C185.66,572.77,186,574.72,185.12,576.56Z"/></svg>